# xmcd
# 
# Track frame offsets:
#     150
#     18933
#     38020
# 
# Disc length: 728
# 
# Revision: 6
# Processed by: cddbd v1.5.2PL0 Copyright (c) Steve Scherf et al.
# Submitted via: fre:ac v1.0.17
# 
DISCID=1602d603
DTITLE=嵐 - We can make it !
DYEAR=2007
DGENRE=JPop
TTITLE0=We can make it !
TTITLE1=Di-Li-Li
TTITLE2=Future
EXTD=YEAR: 2007
EXTT0=
EXTT1=
EXTT2=
PLAYORDER=
